<svg version="1.1" id="Layer_1" xmlns="http://www.w3.org/2000/svg" xmlns:xlink="http://www.w3.org/1999/xlink" x="0px" y="0px"
	 width="100%" viewBox="0 0 512 512" enable-background="new 0 0 512 512" xml:space="preserve">
<path fill="#F3000C" opacity="1.000000" stroke="none" 
	d="
M290.000000,513.000000 
	C193.356796,513.000000 97.213585,513.000000 1.035192,513.000000 
	C1.035192,342.398438 1.035192,171.796860 1.035192,1.097646 
	C171.559891,1.097646 342.119843,1.097646 512.839905,1.097646 
	C512.839905,171.666550 512.839905,342.333252 512.839905,513.000000 
	C438.796844,513.000000 364.648407,513.000000 290.000000,513.000000 
M15.991274,341.500000 
	C15.991285,391.331055 15.990809,441.162140 15.991799,490.993195 
	C15.991959,499.007507 15.994973,499.011780 23.763647,499.011810 
	C179.590179,499.012665 335.416687,499.012665 491.243225,499.011810 
	C499.008911,499.011749 499.011993,499.007446 499.012024,490.988464 
	C499.012634,335.328613 499.012604,179.668747 499.011993,24.008883 
	C499.011963,15.996355 499.008881,15.991997 491.238434,15.991954 
	C335.411926,15.991094 179.585388,15.991095 23.758869,15.991962 
	C15.994946,15.992006 15.991835,15.996399 15.991778,24.013828 
	C15.991041,129.509216 15.991258,235.004608 15.991274,341.500000 
z"/>
<path fill="#E81224" opacity="1.000000" stroke="none" 
	d="
M15.991253,341.000000 
	C15.991258,235.004608 15.991041,129.509216 15.991778,24.013828 
	C15.991835,15.996399 15.994946,15.992006 23.758869,15.991962 
	C179.585388,15.991095 335.411926,15.991094 491.238434,15.991954 
	C499.008881,15.991997 499.011963,15.996355 499.011993,24.008883 
	C499.012604,179.668747 499.012634,335.328613 499.012024,490.988464 
	C499.011993,499.007446 499.008911,499.011749 491.243225,499.011810 
	C335.416687,499.012665 179.590179,499.012665 23.763647,499.011810 
	C15.994973,499.011780 15.991959,499.007507 15.991799,490.993195 
	C15.990809,441.162140 15.991285,391.331055 15.991253,341.000000 
M321.553101,189.965256 
	C344.283783,212.915726 367.014465,235.866196 390.055817,259.130341 
	C356.281250,293.134705 322.996979,326.645447 289.143494,360.729248 
	C295.238007,366.614410 301.073486,371.810120 306.354523,377.518738 
	C309.376190,380.785065 311.037231,380.238281 313.877228,377.360840 
	C349.035034,341.740143 384.321899,306.246918 419.552216,270.697723 
	C427.238861,262.941498 427.287720,255.360458 419.729736,247.650681 
	C410.775574,238.516693 401.771423,229.431519 392.764313,220.349655 
	C366.155121,193.519547 339.513397,166.721619 312.952484,139.843857 
	C310.598907,137.462204 308.960785,137.064499 306.487640,139.738312 
	C301.861359,144.739944 297.048492,149.590790 292.041443,154.209686 
	C289.379608,156.665176 289.637817,158.148849 292.111206,160.576233 
	C301.837067,170.121185 311.348480,179.884705 321.553101,189.965256 
M184.558197,156.037003 
	C154.571106,186.245773 124.570419,216.441086 94.605400,246.671738 
	C85.946861,255.407028 85.985352,262.816650 94.631493,271.540558 
	C116.522881,293.628845 138.431641,315.699890 160.333496,337.777802 
	C173.561478,351.112122 186.751297,364.484924 200.087997,377.709656 
	C201.189285,378.801697 204.151154,379.860535 204.788391,379.293549 
	C211.436981,373.378479 217.786713,367.127563 224.285645,360.906158 
	C222.289795,358.763641 221.205521,357.532928 220.051880,356.371033 
	C188.899475,324.995697 157.768799,293.598572 126.524178,262.315277 
	C124.149597,259.937775 123.561150,258.722107 126.260529,256.030487 
	C152.043304,230.321487 177.674774,204.460693 203.332932,178.626862 
	C210.294739,171.617386 217.199860,164.551605 223.589066,158.062134 
	C216.731476,150.809723 210.297012,144.004791 203.695099,137.022766 
	C197.278534,143.421127 191.178925,149.503418 184.558197,156.037003 
M281.034973,272.464508 
	C289.753479,278.739044 298.958984,278.155182 305.737091,270.897797 
	C311.964111,264.230469 312.147919,254.157394 306.168396,247.261047 
	C299.543488,239.620361 288.224304,238.782242 280.680573,245.373764 
	C272.888153,252.182571 272.808533,263.600067 281.034973,272.464508 
M219.718369,276.789825 
	C220.715561,276.766113 221.721710,276.820129 222.708496,276.706299 
	C230.201538,275.842010 236.660599,270.167816 238.201736,263.136505 
	C239.948975,255.164841 236.771713,247.567566 229.944092,243.391342 
	C223.797379,239.631607 215.129501,240.215622 209.433731,245.094345 
	C204.274384,249.513611 201.898849,255.251190 203.295776,262.017578 
	C205.031998,270.427460 210.447388,275.241425 219.718369,276.789825 
z"/>
<path fill="#FEF9FA" opacity="1.000000" stroke="none" 
	d="
M321.246277,189.766174 
	C311.348480,179.884705 301.837067,170.121185 292.111206,160.576233 
	C289.637817,158.148849 289.379608,156.665176 292.041443,154.209686 
	C297.048492,149.590790 301.861359,144.739944 306.487640,139.738312 
	C308.960785,137.064499 310.598907,137.462204 312.952484,139.843857 
	C339.513397,166.721619 366.155121,193.519547 392.764313,220.349655 
	C401.771423,229.431519 410.775574,238.516693 419.729736,247.650681 
	C427.287720,255.360458 427.238861,262.941498 419.552216,270.697723 
	C384.321899,306.246918 349.035034,341.740143 313.877228,377.360840 
	C311.037231,380.238281 309.376190,380.785065 306.354523,377.518738 
	C301.073486,371.810120 295.238007,366.614410 289.143494,360.729248 
	C322.996979,326.645447 356.281250,293.134705 390.055817,259.130341 
	C367.014465,235.866196 344.283783,212.915726 321.246277,189.766174 
z"/>
<path fill="#FEF9FA" opacity="1.000000" stroke="none" 
	d="
M184.818756,155.811371 
	C191.178925,149.503418 197.278534,143.421127 203.695099,137.022766 
	C210.297012,144.004791 216.731476,150.809723 223.589066,158.062134 
	C217.199860,164.551605 210.294739,171.617386 203.332932,178.626862 
	C177.674774,204.460693 152.043304,230.321487 126.260529,256.030487 
	C123.561150,258.722107 124.149597,259.937775 126.524178,262.315277 
	C157.768799,293.598572 188.899475,324.995697 220.051880,356.371033 
	C221.205521,357.532928 222.289795,358.763641 224.285645,360.906158 
	C217.786713,367.127563 211.436981,373.378479 204.788391,379.293549 
	C204.151154,379.860535 201.189285,378.801697 200.087997,377.709656 
	C186.751297,364.484924 173.561478,351.112122 160.333496,337.777802 
	C138.431641,315.699890 116.522881,293.628845 94.631493,271.540558 
	C85.985352,262.816650 85.946861,255.407028 94.605400,246.671738 
	C124.570419,216.441086 154.571106,186.245773 184.818756,155.811371 
z"/>
<path fill="#FEF5F6" opacity="1.000000" stroke="none" 
	d="
M280.764923,272.236450 
	C272.808533,263.600067 272.888153,252.182571 280.680573,245.373764 
	C288.224304,238.782242 299.543488,239.620361 306.168396,247.261047 
	C312.147919,254.157394 311.964111,264.230469 305.737091,270.897797 
	C298.958984,278.155182 289.753479,278.739044 280.764923,272.236450 
z"/>
<path fill="#FEF6F6" opacity="1.000000" stroke="none" 
	d="
M219.294556,276.754486 
	C210.447388,275.241425 205.031998,270.427460 203.295776,262.017578 
	C201.898849,255.251190 204.274384,249.513611 209.433731,245.094345 
	C215.129501,240.215622 223.797379,239.631607 229.944092,243.391342 
	C236.771713,247.567566 239.948975,255.164841 238.201736,263.136505 
	C236.660599,270.167816 230.201538,275.842010 222.708496,276.706299 
	C221.721710,276.820129 220.715561,276.766113 219.294556,276.754486 
z"/>
</svg>